<?xml version="1.0" encoding="UTF-8"?>
<svg width="24px" height="24px" viewBox="0 0 24 24" version="1.1" xmlns="http://www.w3.org/2000/svg" xmlns:xlink="http://www.w3.org/1999/xlink">
    <title>australiadots</title>
    <g id="australiadots" stroke="none" stroke-width="1" fill="none" fill-rule="evenodd">
        <ellipse id="Oval" stroke="#000000" fill="#000000" cx="17.1851852" cy="3.33333333" rx="1" ry="1"></ellipse>
        <ellipse id="Oval" stroke="#000000" fill="#000000" cx="17.1851852" cy="6" rx="1" ry="1"></ellipse>
        <ellipse id="Oval" stroke="#000000" fill="#000000" cx="12.7407407" cy="6" rx="1" ry="1"></ellipse>
        <ellipse id="Oval" stroke="#000000" fill="#000000" cx="14.2222222" cy="6" rx="1" ry="1"></ellipse>
        <ellipse id="Oval" stroke="#000000" fill="#000000" cx="15.7037037" cy="6" rx="1" ry="1"></ellipse>
        <ellipse id="Oval" stroke="#000000" fill="#000000" cx="17.1851852" cy="6" rx="1" ry="1"></ellipse>
        <ellipse id="Oval" stroke="#000000" fill="#000000" cx="17.1851852" cy="8.66666667" rx="1" ry="1"></ellipse>
        <ellipse id="Oval" stroke="#000000" fill="#000000" cx="17.1851852" cy="7.33333333" rx="1" ry="1"></ellipse>
        <ellipse id="Oval" stroke="#000000" fill="#000000" cx="15.7037037" cy="7.33333333" rx="1" ry="1"></ellipse>
        <ellipse id="Oval" stroke="#000000" fill="#000000" cx="14.2222222" cy="7.33333333" rx="1" ry="1"></ellipse>
        <ellipse id="Oval" stroke="#000000" fill="#000000" cx="12.7407407" cy="7.33333333" rx="1" ry="1"></ellipse>
        <ellipse id="Oval" stroke="#000000" fill="#000000" cx="11.2592593" cy="7.33333333" rx="1" ry="1"></ellipse>
        <ellipse id="Oval" stroke="#000000" fill="#000000" cx="11.2592593" cy="6" rx="1" ry="1"></ellipse>
        <ellipse id="Oval" stroke="#000000" fill="#000000" cx="9.77777778" cy="7.33333333" rx="1" ry="1"></ellipse>
        <ellipse id="Oval" stroke="#000000" fill="#000000" cx="15.7037037" cy="8.66666667" rx="1" ry="1"></ellipse>
        <ellipse id="Oval" stroke="#000000" fill="#000000" cx="14.2222222" cy="8.66666667" rx="1" ry="1"></ellipse>
        <ellipse id="Oval" stroke="#000000" fill="#000000" cx="12.7407407" cy="8.66666667" rx="1" ry="1"></ellipse>
        <ellipse id="Oval" stroke="#000000" fill="#000000" cx="11.2592593" cy="8.66666667" rx="1" ry="1"></ellipse>
        <ellipse id="Oval" stroke="#000000" fill="#000000" cx="9.77777778" cy="8.66666667" rx="1" ry="1"></ellipse>
        <ellipse id="Oval" stroke="#000000" fill="#000000" cx="9.77777778" cy="6" rx="1" ry="1"></ellipse>
        <ellipse id="Oval" stroke="#000000" fill="#000000" cx="8.2962963" cy="7.33333333" rx="1" ry="1"></ellipse>
        <ellipse id="Oval" stroke="#000000" fill="#000000" cx="9.77777778" cy="4.66666667" rx="1" ry="1"></ellipse>
        <ellipse id="Oval" stroke="#000000" fill="#000000" cx="11.2592593" cy="3.33333333" rx="1" ry="1"></ellipse>
        <ellipse id="Oval" stroke="#000000" fill="#000000" cx="11.2592593" cy="4.66666667" rx="1" ry="1"></ellipse>
        <ellipse id="Oval" stroke="#000000" fill="#000000" cx="8.2962963" cy="4.66666667" rx="1" ry="1"></ellipse>
        <ellipse id="Oval" stroke="#000000" fill="#000000" cx="8.2962963" cy="6" rx="1" ry="1"></ellipse>
        <ellipse id="Oval" stroke="#000000" fill="#000000" cx="6.81481481" cy="7.33333333" rx="1" ry="1"></ellipse>
        <ellipse id="Oval" stroke="#000000" fill="#000000" cx="12.7407407" cy="3.33333333" rx="1" ry="1"></ellipse>
        <ellipse id="Oval" stroke="#000000" fill="#000000" cx="18.6666667" cy="6" rx="1" ry="1"></ellipse>
        <ellipse id="Oval" stroke="#000000" fill="#000000" cx="5.33333333" cy="7.33333333" rx="1" ry="1"></ellipse>
        <ellipse id="Oval" stroke="#000000" fill="#000000" cx="18.6666667" cy="8.66666667" rx="1" ry="1"></ellipse>
        <ellipse id="Oval" stroke="#000000" fill="#000000" cx="3.85185185" cy="8.66666667" rx="1" ry="1"></ellipse>
        <ellipse id="Oval" stroke="#000000" fill="#000000" cx="12.7407407" cy="4.66666667" rx="1" ry="1"></ellipse>
        <ellipse id="Oval" stroke="#000000" fill="#000000" cx="20.1481481" cy="10" rx="1" ry="1"></ellipse>
        <ellipse id="Oval" stroke="#000000" fill="#000000" cx="17.1851852" cy="4.66666667" rx="1" ry="1"></ellipse>
        <ellipse id="Oval" stroke="#000000" fill="#000000" cx="6.81481481" cy="6" rx="1" ry="1"></ellipse>
        <ellipse id="Oval" stroke="#000000" fill="#000000" cx="5.33333333" cy="8.66666667" rx="1" ry="1"></ellipse>
        <ellipse id="Oval" stroke="#000000" fill="#000000" cx="6.81481481" cy="8.66666667" rx="1" ry="1"></ellipse>
        <ellipse id="Oval" stroke="#000000" fill="#000000" cx="8.2962963" cy="8.66666667" rx="1" ry="1"></ellipse>
        <ellipse id="Oval" stroke="#000000" fill="#000000" cx="17.1851852" cy="10" rx="1" ry="1"></ellipse>
        <ellipse id="Oval" stroke="#000000" fill="#000000" cx="18.6666667" cy="10" rx="1" ry="1"></ellipse>
        <ellipse id="Oval" stroke="#000000" fill="#000000" cx="15.7037037" cy="10" rx="1" ry="1"></ellipse>
        <ellipse id="Oval" stroke="#000000" fill="#000000" cx="14.2222222" cy="10" rx="1" ry="1"></ellipse>
        <ellipse id="Oval" stroke="#000000" fill="#000000" cx="12.7407407" cy="10" rx="1" ry="1"></ellipse>
        <ellipse id="Oval" stroke="#000000" fill="#000000" cx="11.2592593" cy="10" rx="1" ry="1"></ellipse>
        <ellipse id="Oval" stroke="#000000" fill="#000000" cx="9.77777778" cy="10" rx="1" ry="1"></ellipse>
        <ellipse id="Oval" stroke="#000000" fill="#000000" cx="3.85185185" cy="10" rx="1" ry="1"></ellipse>
        <ellipse id="Oval" stroke="#000000" fill="#000000" cx="20.1481481" cy="8.66666667" rx="1" ry="1"></ellipse>
        <ellipse id="Oval" stroke="#000000" fill="#000000" cx="20.1481481" cy="14" rx="1" ry="1"></ellipse>
        <ellipse id="Oval" stroke="#000000" fill="#000000" cx="5.33333333" cy="10" rx="1" ry="1"></ellipse>
        <ellipse id="Oval" stroke="#000000" fill="#000000" cx="6.81481481" cy="15.3333333" rx="1" ry="1"></ellipse>
        <ellipse id="Oval" stroke="#000000" fill="#000000" cx="6.81481481" cy="10" rx="1" ry="1"></ellipse>
        <ellipse id="Oval" stroke="#000000" fill="#000000" cx="8.2962963" cy="10" rx="1" ry="1"></ellipse>
        <ellipse id="Oval" stroke="#000000" fill="#000000" cx="20.1481481" cy="11.3333333" rx="1" ry="1"></ellipse>
        <ellipse id="Oval" stroke="#000000" fill="#000000" cx="17.1851852" cy="11.3333333" rx="1" ry="1"></ellipse>
        <ellipse id="Oval" stroke="#000000" fill="#000000" cx="18.6666667" cy="11.3333333" rx="1" ry="1"></ellipse>
        <ellipse id="Oval" stroke="#000000" fill="#000000" cx="15.7037037" cy="11.3333333" rx="1" ry="1"></ellipse>
        <ellipse id="Oval" stroke="#000000" fill="#000000" cx="14.2222222" cy="11.3333333" rx="1" ry="1"></ellipse>
        <ellipse id="Oval" stroke="#000000" fill="#000000" cx="12.7407407" cy="11.3333333" rx="1" ry="1"></ellipse>
        <ellipse id="Oval" stroke="#000000" fill="#000000" cx="11.2592593" cy="11.3333333" rx="1" ry="1"></ellipse>
        <ellipse id="Oval" stroke="#000000" fill="#000000" cx="9.77777778" cy="11.3333333" rx="1" ry="1"></ellipse>
        <ellipse id="Oval" stroke="#000000" fill="#000000" cx="3.85185185" cy="11.3333333" rx="1" ry="1"></ellipse>
        <ellipse id="Oval" stroke="#000000" fill="#000000" cx="2.37037037" cy="11.3333333" rx="1" ry="1"></ellipse>
        <ellipse id="Oval" stroke="#000000" fill="#000000" cx="5.33333333" cy="11.3333333" rx="1" ry="1"></ellipse>
        <ellipse id="Oval" stroke="#000000" fill="#000000" cx="6.81481481" cy="14" rx="1" ry="1"></ellipse>
        <ellipse id="Oval" stroke="#000000" fill="#000000" cx="6.81481481" cy="11.3333333" rx="1" ry="1"></ellipse>
        <ellipse id="Oval" stroke="#000000" fill="#000000" cx="8.2962963" cy="11.3333333" rx="1" ry="1"></ellipse>
        <ellipse id="Oval" stroke="#000000" fill="#000000" cx="20.1481481" cy="12.6666667" rx="1" ry="1"></ellipse>
        <ellipse id="Oval" stroke="#000000" fill="#000000" cx="17.1851852" cy="12.6666667" rx="1" ry="1"></ellipse>
        <ellipse id="Oval" stroke="#000000" fill="#000000" cx="18.6666667" cy="12.6666667" rx="1" ry="1"></ellipse>
        <ellipse id="Oval" stroke="#000000" fill="#000000" cx="15.7037037" cy="12.6666667" rx="1" ry="1"></ellipse>
        <ellipse id="Oval" stroke="#000000" fill="#000000" cx="14.2222222" cy="12.6666667" rx="1" ry="1"></ellipse>
        <ellipse id="Oval" stroke="#000000" fill="#000000" cx="12.7407407" cy="12.6666667" rx="1" ry="1"></ellipse>
        <ellipse id="Oval" stroke="#000000" fill="#000000" cx="11.2592593" cy="12.6666667" rx="1" ry="1"></ellipse>
        <ellipse id="Oval" stroke="#000000" fill="#000000" cx="9.77777778" cy="12.6666667" rx="1" ry="1"></ellipse>
        <ellipse id="Oval" stroke="#000000" fill="#000000" cx="3.85185185" cy="12.6666667" rx="1" ry="1"></ellipse>
        <ellipse id="Oval" stroke="#000000" fill="#000000" cx="8.2962963" cy="14" rx="1" ry="1"></ellipse>
        <ellipse id="Oval" stroke="#000000" fill="#000000" cx="5.33333333" cy="12.6666667" rx="1" ry="1"></ellipse>
        <ellipse id="Oval" stroke="#000000" fill="#000000" cx="18.6666667" cy="7.33333333" rx="1" ry="1"></ellipse>
        <ellipse id="Oval" stroke="#000000" fill="#000000" cx="6.81481481" cy="12.6666667" rx="1" ry="1"></ellipse>
        <ellipse id="Oval" stroke="#000000" fill="#000000" cx="8.2962963" cy="12.6666667" rx="1" ry="1"></ellipse>
        <ellipse id="Oval" stroke="#000000" fill="#000000" cx="18.6666667" cy="20.6666667" rx="1" ry="1"></ellipse>
        <ellipse id="Oval" stroke="#000000" fill="#000000" cx="21.6296296" cy="12.6666667" rx="1" ry="1"></ellipse>
        <ellipse id="Oval" stroke="#000000" fill="#000000" cx="17.1851852" cy="19.3333333" rx="1" ry="1"></ellipse>
        <ellipse id="Oval" stroke="#000000" fill="#000000" cx="21.6296296" cy="10" rx="1" ry="1"></ellipse>
        <ellipse id="Oval" stroke="#000000" fill="#000000" cx="17.1851852" cy="14" rx="1" ry="1"></ellipse>
        <ellipse id="Oval" stroke="#000000" fill="#000000" cx="18.6666667" cy="14" rx="1" ry="1"></ellipse>
        <ellipse id="Oval" stroke="#000000" fill="#000000" cx="15.7037037" cy="14" rx="1" ry="1"></ellipse>
        <ellipse id="Oval" stroke="#000000" fill="#000000" cx="14.2222222" cy="14" rx="1" ry="1"></ellipse>
        <ellipse id="Oval" stroke="#000000" fill="#000000" cx="12.7407407" cy="14" rx="1" ry="1"></ellipse>
        <ellipse id="Oval" stroke="#000000" fill="#000000" cx="18.6666667" cy="16.6666667" rx="1" ry="1"></ellipse>
        <ellipse id="Oval" stroke="#000000" fill="#000000" cx="2.37037037" cy="10" rx="1" ry="1"></ellipse>
        <ellipse id="Oval" stroke="#000000" fill="#000000" cx="5.33333333" cy="14" rx="1" ry="1"></ellipse>
        <ellipse id="Oval" stroke="#000000" fill="#000000" cx="17.1851852" cy="16.6666667" rx="1" ry="1"></ellipse>
        <ellipse id="Oval" stroke="#000000" fill="#000000" cx="17.1851852" cy="15.3333333" rx="1" ry="1"></ellipse>
        <ellipse id="Oval" stroke="#000000" fill="#000000" cx="18.6666667" cy="15.3333333" rx="1" ry="1"></ellipse>
        <ellipse id="Oval" stroke="#000000" fill="#000000" cx="15.7037037" cy="15.3333333" rx="1" ry="1"></ellipse>
        <ellipse id="Oval" stroke="#000000" fill="#000000" cx="18.6666667" cy="19.3333333" rx="1" ry="1"></ellipse>
        <ellipse id="Oval" stroke="#000000" fill="#000000" cx="21.6296296" cy="11.3333333" rx="1" ry="1"></ellipse>
        <rect id="Rectangle" fill="#000000" x="13" y="0" width="1" height="1"></rect>
    </g>
</svg>