<?xml version="1.0" encoding="UTF-8"?>
<svg width="24px" height="24px" viewBox="0 0 24 24" version="1.1" xmlns="http://www.w3.org/2000/svg" xmlns:xlink="http://www.w3.org/1999/xlink">
    <title>australiadots</title>
    <g id="australiadots" stroke="none" stroke-width="1" fill="none" fill-rule="evenodd">
        <ellipse id="Oval" stroke="#000000" fill="#000000" cx="15.3888889" cy="6.25925926" rx="1" ry="1"></ellipse>
        <ellipse id="Oval" stroke="#000000" fill="#000000" cx="15.3888889" cy="8.33333333" rx="1" ry="1"></ellipse>
        <ellipse id="Oval" stroke="#000000" fill="#000000" cx="12.0555556" cy="8.33333333" rx="1" ry="1"></ellipse>
        <ellipse id="Oval" stroke="#000000" fill="#000000" cx="13.1666667" cy="8.33333333" rx="1" ry="1"></ellipse>
        <ellipse id="Oval" stroke="#000000" fill="#000000" cx="14.2777778" cy="8.33333333" rx="1" ry="1"></ellipse>
        <ellipse id="Oval" stroke="#000000" fill="#000000" cx="15.3888889" cy="8.33333333" rx="1" ry="1"></ellipse>
        <ellipse id="Oval" stroke="#000000" fill="#000000" cx="15.3888889" cy="10.4074074" rx="1" ry="1"></ellipse>
        <ellipse id="Oval" stroke="#000000" fill="#000000" cx="15.3888889" cy="9.37037037" rx="1" ry="1"></ellipse>
        <ellipse id="Oval" stroke="#000000" fill="#000000" cx="14.2777778" cy="9.37037037" rx="1" ry="1"></ellipse>
        <ellipse id="Oval" stroke="#000000" fill="#000000" cx="13.1666667" cy="9.37037037" rx="1" ry="1"></ellipse>
        <ellipse id="Oval" stroke="#000000" fill="#000000" cx="12.0555556" cy="9.37037037" rx="1" ry="1"></ellipse>
        <ellipse id="Oval" stroke="#000000" fill="#000000" cx="10.9444444" cy="9.37037037" rx="1" ry="1"></ellipse>
        <ellipse id="Oval" stroke="#000000" fill="#000000" cx="10.9444444" cy="8.33333333" rx="1" ry="1"></ellipse>
        <ellipse id="Oval" stroke="#000000" fill="#000000" cx="9.83333333" cy="9.37037037" rx="1" ry="1"></ellipse>
        <ellipse id="Oval" stroke="#000000" fill="#000000" cx="14.2777778" cy="10.4074074" rx="1" ry="1"></ellipse>
        <ellipse id="Oval" stroke="#000000" fill="#000000" cx="13.1666667" cy="10.4074074" rx="1" ry="1"></ellipse>
        <ellipse id="Oval" stroke="#000000" fill="#000000" cx="12.0555556" cy="10.4074074" rx="1" ry="1"></ellipse>
        <ellipse id="Oval" stroke="#000000" fill="#000000" cx="10.9444444" cy="10.4074074" rx="1" ry="1"></ellipse>
        <ellipse id="Oval" stroke="#000000" fill="#000000" cx="9.83333333" cy="10.4074074" rx="1" ry="1"></ellipse>
        <ellipse id="Oval" stroke="#000000" fill="#000000" cx="9.83333333" cy="8.33333333" rx="1" ry="1"></ellipse>
        <ellipse id="Oval" stroke="#000000" fill="#000000" cx="8.72222222" cy="9.37037037" rx="1" ry="1"></ellipse>
        <ellipse id="Oval" stroke="#000000" fill="#000000" cx="9.83333333" cy="7.2962963" rx="1" ry="1"></ellipse>
        <ellipse id="Oval" stroke="#000000" fill="#000000" cx="10.9444444" cy="6.25925926" rx="1" ry="1"></ellipse>
        <ellipse id="Oval" stroke="#000000" fill="#000000" cx="10.9444444" cy="7.2962963" rx="1" ry="1"></ellipse>
        <ellipse id="Oval" stroke="#000000" fill="#000000" cx="8.72222222" cy="7.2962963" rx="1" ry="1"></ellipse>
        <ellipse id="Oval" stroke="#000000" fill="#000000" cx="8.72222222" cy="8.33333333" rx="1" ry="1"></ellipse>
        <ellipse id="Oval" stroke="#000000" fill="#000000" cx="7.61111111" cy="9.37037037" rx="1" ry="1"></ellipse>
        <ellipse id="Oval" stroke="#000000" fill="#000000" cx="12.0555556" cy="6.25925926" rx="1" ry="1"></ellipse>
        <ellipse id="Oval" stroke="#000000" fill="#000000" cx="16.5" cy="8.33333333" rx="1" ry="1"></ellipse>
        <ellipse id="Oval" stroke="#000000" fill="#000000" cx="6.5" cy="9.37037037" rx="1" ry="1"></ellipse>
        <ellipse id="Oval" stroke="#000000" fill="#000000" cx="16.5" cy="10.4074074" rx="1" ry="1"></ellipse>
        <ellipse id="Oval" stroke="#000000" fill="#000000" cx="5.38888889" cy="10.4074074" rx="1" ry="1"></ellipse>
        <ellipse id="Oval" stroke="#000000" fill="#000000" cx="12.0555556" cy="7.2962963" rx="1" ry="1"></ellipse>
        <ellipse id="Oval" stroke="#000000" fill="#000000" cx="17.6111111" cy="11.4444444" rx="1" ry="1"></ellipse>
        <ellipse id="Oval" stroke="#000000" fill="#000000" cx="15.3888889" cy="7.2962963" rx="1" ry="1"></ellipse>
        <ellipse id="Oval" stroke="#000000" fill="#000000" cx="7.61111111" cy="8.33333333" rx="1" ry="1"></ellipse>
        <ellipse id="Oval" stroke="#000000" fill="#000000" cx="6.5" cy="10.4074074" rx="1" ry="1"></ellipse>
        <ellipse id="Oval" stroke="#000000" fill="#000000" cx="7.61111111" cy="10.4074074" rx="1" ry="1"></ellipse>
        <ellipse id="Oval" stroke="#000000" fill="#000000" cx="8.72222222" cy="10.4074074" rx="1" ry="1"></ellipse>
        <ellipse id="Oval" stroke="#000000" fill="#000000" cx="15.3888889" cy="11.4444444" rx="1" ry="1"></ellipse>
        <ellipse id="Oval" stroke="#000000" fill="#000000" cx="16.5" cy="11.4444444" rx="1" ry="1"></ellipse>
        <ellipse id="Oval" stroke="#000000" fill="#000000" cx="14.2777778" cy="11.4444444" rx="1" ry="1"></ellipse>
        <ellipse id="Oval" stroke="#000000" fill="#000000" cx="13.1666667" cy="11.4444444" rx="1" ry="1"></ellipse>
        <ellipse id="Oval" stroke="#000000" fill="#000000" cx="12.0555556" cy="11.4444444" rx="1" ry="1"></ellipse>
        <ellipse id="Oval" stroke="#000000" fill="#000000" cx="10.9444444" cy="11.4444444" rx="1" ry="1"></ellipse>
        <ellipse id="Oval" stroke="#000000" fill="#000000" cx="9.83333333" cy="11.4444444" rx="1" ry="1"></ellipse>
        <ellipse id="Oval" stroke="#000000" fill="#000000" cx="5.38888889" cy="11.4444444" rx="1" ry="1"></ellipse>
        <ellipse id="Oval" stroke="#000000" fill="#000000" cx="17.6111111" cy="10.4074074" rx="1" ry="1"></ellipse>
        <ellipse id="Oval" stroke="#000000" fill="#000000" cx="17.6111111" cy="14.5555556" rx="1" ry="1"></ellipse>
        <ellipse id="Oval" stroke="#000000" fill="#000000" cx="17.6111111" cy="15.5925926" rx="1" ry="1"></ellipse>
        <ellipse id="Oval" stroke="#000000" fill="#000000" cx="6.5" cy="11.4444444" rx="1" ry="1"></ellipse>
        <ellipse id="Oval" stroke="#000000" fill="#000000" cx="7.61111111" cy="15.5925926" rx="1" ry="1"></ellipse>
        <ellipse id="Oval" stroke="#000000" fill="#000000" cx="7.61111111" cy="11.4444444" rx="1" ry="1"></ellipse>
        <ellipse id="Oval" stroke="#000000" fill="#000000" cx="8.72222222" cy="11.4444444" rx="1" ry="1"></ellipse>
        <ellipse id="Oval" stroke="#000000" fill="#000000" cx="17.6111111" cy="12.4814815" rx="1" ry="1"></ellipse>
        <ellipse id="Oval" stroke="#000000" fill="#000000" cx="15.3888889" cy="12.4814815" rx="1" ry="1"></ellipse>
        <ellipse id="Oval" stroke="#000000" fill="#000000" cx="16.5" cy="12.4814815" rx="1" ry="1"></ellipse>
        <ellipse id="Oval" stroke="#000000" fill="#000000" cx="14.2777778" cy="12.4814815" rx="1" ry="1"></ellipse>
        <ellipse id="Oval" stroke="#000000" fill="#000000" cx="13.1666667" cy="12.4814815" rx="1" ry="1"></ellipse>
        <ellipse id="Oval" stroke="#000000" fill="#000000" cx="12.0555556" cy="12.4814815" rx="1" ry="1"></ellipse>
        <ellipse id="Oval" stroke="#000000" fill="#000000" cx="10.9444444" cy="12.4814815" rx="1" ry="1"></ellipse>
        <ellipse id="Oval" stroke="#000000" fill="#000000" cx="9.83333333" cy="12.4814815" rx="1" ry="1"></ellipse>
        <ellipse id="Oval" stroke="#000000" fill="#000000" cx="5.38888889" cy="12.4814815" rx="1" ry="1"></ellipse>
        <ellipse id="Oval" stroke="#000000" fill="#000000" cx="4.27777778" cy="12.4814815" rx="1" ry="1"></ellipse>
        <ellipse id="Oval" stroke="#000000" fill="#000000" cx="6.5" cy="12.4814815" rx="1" ry="1"></ellipse>
        <ellipse id="Oval" stroke="#000000" fill="#000000" cx="7.61111111" cy="14.5555556" rx="1" ry="1"></ellipse>
        <ellipse id="Oval" stroke="#000000" fill="#000000" cx="7.61111111" cy="12.4814815" rx="1" ry="1"></ellipse>
        <ellipse id="Oval" stroke="#000000" fill="#000000" cx="8.72222222" cy="12.4814815" rx="1" ry="1"></ellipse>
        <ellipse id="Oval" stroke="#000000" fill="#000000" cx="17.6111111" cy="13.5185185" rx="1" ry="1"></ellipse>
        <ellipse id="Oval" stroke="#000000" fill="#000000" cx="15.3888889" cy="13.5185185" rx="1" ry="1"></ellipse>
        <ellipse id="Oval" stroke="#000000" fill="#000000" cx="16.5" cy="13.5185185" rx="1" ry="1"></ellipse>
        <ellipse id="Oval" stroke="#000000" fill="#000000" cx="14.2777778" cy="13.5185185" rx="1" ry="1"></ellipse>
        <ellipse id="Oval" stroke="#000000" fill="#000000" cx="13.1666667" cy="13.5185185" rx="1" ry="1"></ellipse>
        <ellipse id="Oval" stroke="#000000" fill="#000000" cx="12.0555556" cy="13.5185185" rx="1" ry="1"></ellipse>
        <ellipse id="Oval" stroke="#000000" fill="#000000" cx="10.9444444" cy="13.5185185" rx="1" ry="1"></ellipse>
        <ellipse id="Oval" stroke="#000000" fill="#000000" cx="9.83333333" cy="13.5185185" rx="1" ry="1"></ellipse>
        <ellipse id="Oval" stroke="#000000" fill="#000000" cx="5.38888889" cy="13.5185185" rx="1" ry="1"></ellipse>
        <ellipse id="Oval" stroke="#000000" fill="#000000" cx="8.72222222" cy="14.5555556" rx="1" ry="1"></ellipse>
        <ellipse id="Oval" stroke="#000000" fill="#000000" cx="6.5" cy="13.5185185" rx="1" ry="1"></ellipse>
        <ellipse id="Oval" stroke="#000000" fill="#000000" cx="16.5" cy="9.37037037" rx="1" ry="1"></ellipse>
        <ellipse id="Oval" stroke="#000000" fill="#000000" cx="7.61111111" cy="13.5185185" rx="1" ry="1"></ellipse>
        <ellipse id="Oval" stroke="#000000" fill="#000000" cx="8.72222222" cy="13.5185185" rx="1" ry="1"></ellipse>
        <ellipse id="Oval" stroke="#000000" fill="#000000" cx="16.5" cy="19.7407407" rx="1" ry="1"></ellipse>
        <ellipse id="Oval" stroke="#000000" fill="#000000" cx="18.7222222" cy="13.5185185" rx="1" ry="1"></ellipse>
        <ellipse id="Oval" stroke="#000000" fill="#000000" cx="15.3888889" cy="18.7037037" rx="1" ry="1"></ellipse>
        <ellipse id="Oval" stroke="#000000" fill="#000000" cx="18.7222222" cy="11.4444444" rx="1" ry="1"></ellipse>
        <ellipse id="Oval" stroke="#000000" fill="#000000" cx="15.3888889" cy="14.5555556" rx="1" ry="1"></ellipse>
        <ellipse id="Oval" stroke="#000000" fill="#000000" cx="16.5" cy="14.5555556" rx="1" ry="1"></ellipse>
        <ellipse id="Oval" stroke="#000000" fill="#000000" cx="14.2777778" cy="14.5555556" rx="1" ry="1"></ellipse>
        <ellipse id="Oval" stroke="#000000" fill="#000000" cx="13.1666667" cy="14.5555556" rx="1" ry="1"></ellipse>
        <ellipse id="Oval" stroke="#000000" fill="#000000" cx="12.0555556" cy="14.5555556" rx="1" ry="1"></ellipse>
        <ellipse id="Oval" stroke="#000000" fill="#000000" cx="16.5" cy="16.6296296" rx="1" ry="1"></ellipse>
        <ellipse id="Oval" stroke="#000000" fill="#000000" cx="4.27777778" cy="11.4444444" rx="1" ry="1"></ellipse>
        <ellipse id="Oval" stroke="#000000" fill="#000000" cx="6.5" cy="14.5555556" rx="1" ry="1"></ellipse>
        <ellipse id="Oval" stroke="#000000" fill="#000000" cx="15.3888889" cy="16.6296296" rx="1" ry="1"></ellipse>
        <ellipse id="Oval" stroke="#000000" fill="#000000" cx="15.3888889" cy="15.5925926" rx="1" ry="1"></ellipse>
        <ellipse id="Oval" stroke="#000000" fill="#000000" cx="16.5" cy="15.5925926" rx="1" ry="1"></ellipse>
        <ellipse id="Oval" stroke="#000000" fill="#000000" cx="14.2777778" cy="15.5925926" rx="1" ry="1"></ellipse>
        <ellipse id="Oval" stroke="#000000" fill="#000000" cx="16.5" cy="18.7037037" rx="1" ry="1"></ellipse>
        <ellipse id="Oval" stroke="#000000" fill="#000000" cx="18.7222222" cy="12.4814815" rx="1" ry="1"></ellipse>
        <rect id="Rectangle" fill="#000000" x="12" y="3" width="1" height="1"></rect>
    </g>
</svg>