<?xml version="1.0" encoding="UTF-8"?>
<svg width="24px" height="24px" viewBox="0 0 24 24" version="1.1" xmlns="http://www.w3.org/2000/svg" xmlns:xlink="http://www.w3.org/1999/xlink">
    <title>statesdotspop</title>
    <g id="statesdotspop" stroke="none" stroke-width="1" fill="none" fill-rule="evenodd">
        <ellipse id="Oval" stroke="#000000" fill="#000000" cx="15.9983923" cy="0.0285714286" rx="1" ry="1"></ellipse>
        <ellipse id="Oval" stroke="#000000" fill="#000000" cx="15.9983923" cy="2.08571429" rx="1" ry="1"></ellipse>
        <ellipse id="Oval" stroke="#000000" fill="#000000" cx="14.7765273" cy="2.08571429" rx="1" ry="1"></ellipse>
        <ellipse id="Oval" stroke="#000000" fill="#000000" cx="15.9983923" cy="4.14285714" rx="1" ry="1"></ellipse>
        <ellipse id="Oval" stroke="#000000" fill="#000000" cx="15.9983923" cy="3.11428571" rx="1" ry="1"></ellipse>
        <ellipse id="Oval" stroke="#000000" fill="#000000" cx="14.7765273" cy="3.11428571" rx="1" ry="1"></ellipse>
        <ellipse id="Oval" stroke="#000000" fill="#000000" cx="14.7765273" cy="4.14285714" rx="1" ry="1"></ellipse>
        <ellipse id="Oval" stroke="#000000" fill="#000000" cx="5.72990354" cy="3.37142857" rx="1" ry="1"></ellipse>
        <ellipse id="Oval" stroke="#000000" fill="#000000" cx="17.2202572" cy="2.08571429" rx="1" ry="1"></ellipse>
        <ellipse id="Oval" stroke="#000000" fill="#000000" cx="17.2202572" cy="4.14285714" rx="1" ry="1"></ellipse>
        <ellipse id="Oval" stroke="#000000" fill="#000000" cx="18.4421222" cy="5.17142857" rx="1" ry="1"></ellipse>
        <ellipse id="Oval" stroke="#000000" fill="#000000" cx="15.9983923" cy="1.05714286" rx="1" ry="1"></ellipse>
        <ellipse id="Oval" stroke="#000000" fill="#000000" cx="4.74919614" cy="7.68571429" rx="1" ry="1"></ellipse>
        <ellipse id="Oval" stroke="#000000" fill="#000000" cx="15.9983923" cy="5.17142857" rx="1" ry="1"></ellipse>
        <ellipse id="Oval" stroke="#000000" fill="#000000" cx="17.2202572" cy="5.17142857" rx="1" ry="1"></ellipse>
        <ellipse id="Oval" stroke="#000000" fill="#000000" cx="14.7765273" cy="5.17142857" rx="1" ry="1"></ellipse>
        <ellipse id="Oval" stroke="#000000" fill="#000000" cx="15.9983923" cy="6.17142857" rx="1" ry="1"></ellipse>
        <ellipse id="Oval" stroke="#000000" fill="#000000" cx="17.2202572" cy="6.17142857" rx="1" ry="1"></ellipse>
        <ellipse id="Oval" stroke="#000000" fill="#000000" cx="14.7765273" cy="6.17142857" rx="1" ry="1"></ellipse>
        <ellipse id="Oval" stroke="#000000" fill="#000000" cx="3.52733119" cy="8.71428571" rx="1" ry="1"></ellipse>
        <ellipse id="Oval" stroke="#000000" fill="#000000" cx="18.4421222" cy="4.14285714" rx="1" ry="1"></ellipse>
        <ellipse id="Oval" stroke="#000000" fill="#000000" cx="4.74919614" cy="8.71428571" rx="1" ry="1"></ellipse>
        <ellipse id="Oval" stroke="#000000" fill="#000000" cx="5.25562701" cy="21.6857143" rx="1" ry="1"></ellipse>
        <ellipse id="Oval" stroke="#000000" fill="#000000" cx="4.03376206" cy="21.6857143" rx="1" ry="1"></ellipse>
        <ellipse id="Oval" stroke="#000000" fill="#000000" cx="2.81189711" cy="21.6857143" rx="1" ry="1"></ellipse>
        <ellipse id="Oval" stroke="#000000" fill="#000000" cx="3.52733119" cy="9.74285714" rx="1" ry="1"></ellipse>
        <ellipse id="Oval" stroke="#000000" fill="#000000" cx="2.30546624" cy="9.74285714" rx="1" ry="1"></ellipse>
        <ellipse id="Oval" stroke="#000000" fill="#000000" cx="2.30546624" cy="8.74285714" rx="1" ry="1"></ellipse>
        <ellipse id="Oval" stroke="#000000" fill="#000000" cx="4.74919614" cy="9.74285714" rx="1" ry="1"></ellipse>
        <ellipse id="Oval" stroke="#000000" fill="#000000" cx="5.25562701" cy="22.7142857" rx="1" ry="1"></ellipse>
        <ellipse id="Oval" stroke="#000000" fill="#000000" cx="4.03376206" cy="22.7142857" rx="1" ry="1"></ellipse>
        <ellipse id="Oval" stroke="#000000" fill="#000000" cx="2.81189711" cy="22.7142857" rx="1" ry="1"></ellipse>
        <ellipse id="Oval" stroke="#000000" fill="#000000" cx="3.52733119" cy="10.7714286" rx="1" ry="1"></ellipse>
        <ellipse id="Oval" stroke="#000000" fill="#000000" cx="4.74919614" cy="10.7714286" rx="1" ry="1"></ellipse>
        <ellipse id="Oval" stroke="#000000" fill="#000000" cx="17.2202572" cy="3.11428571" rx="1" ry="1"></ellipse>
        <ellipse id="Oval" stroke="#000000" fill="#000000" cx="19.6639871" cy="5.17142857" rx="1" ry="1"></ellipse>
        <ellipse id="Oval" stroke="#000000" fill="#000000" cx="5.25562701" cy="23.7428571" rx="1" ry="1"></ellipse>
        <ellipse id="Oval" stroke="#000000" fill="#000000" cx="16.6945338" cy="11.1714286" rx="1" ry="1"></ellipse>
        <ellipse id="Oval" stroke="#000000" fill="#000000" cx="13.6945338" cy="23.1714286" rx="1" ry="1"></ellipse>
        <ellipse id="Oval" stroke="#000000" fill="#000000" cx="14.6945338" cy="23.1714286" rx="1" ry="1"></ellipse>
        <ellipse id="Oval" stroke="#000000" fill="#000000" cx="17.6945338" cy="11.1714286" rx="1" ry="1"></ellipse>
        <ellipse id="Oval" stroke="#000000" fill="#000000" cx="4.74919614" cy="11.8" rx="1" ry="1"></ellipse>
        <ellipse id="Oval" stroke="#000000" fill="#000000" cx="11.2554662" cy="18.1714286" rx="1" ry="1"></ellipse>
        <ellipse id="Oval" stroke="#000000" fill="#000000" cx="11.2554662" cy="17.1428571" rx="1" ry="1"></ellipse>
        <ellipse id="Oval" stroke="#000000" fill="#000000" cx="12.2554662" cy="17.1428571" rx="1" ry="1"></ellipse>
        <ellipse id="Oval" stroke="#000000" fill="#000000" cx="12.2554662" cy="18.1428571" rx="1" ry="1"></ellipse>
        <ellipse id="Oval" stroke="#000000" fill="#000000" cx="10.2508039" cy="17.1428571" rx="1" ry="1"></ellipse>
        <ellipse id="Oval" stroke="#000000" fill="#000000" cx="11.2554662" cy="15.1428571" rx="1" ry="1"></ellipse>
        <ellipse id="Oval" stroke="#000000" fill="#000000" cx="12.2554662" cy="15.1428571" rx="1" ry="1"></ellipse>
        <ellipse id="Oval" stroke="#000000" fill="#000000" cx="10.2508039" cy="15.1428571" rx="1" ry="1"></ellipse>
        <ellipse id="Oval" stroke="#000000" fill="#000000" cx="11.2554662" cy="16.1428571" rx="1" ry="1"></ellipse>
        <ellipse id="Oval" stroke="#000000" fill="#000000" cx="12.2554662" cy="16.1428571" rx="1" ry="1"></ellipse>
        <ellipse id="Oval" stroke="#000000" fill="#000000" cx="10.2508039" cy="16.1428571" rx="1" ry="1"></ellipse>
        <ellipse id="Oval" stroke="#000000" fill="#000000" cx="9.25080386" cy="17.1428571" rx="1" ry="1"></ellipse>
        <ellipse id="Oval" stroke="#000000" fill="#000000" cx="9.25080386" cy="15.1428571" rx="1" ry="1"></ellipse>
        <ellipse id="Oval" stroke="#000000" fill="#000000" cx="11.2554662" cy="14.1428571" rx="1" ry="1"></ellipse>
        <ellipse id="Oval" stroke="#000000" fill="#000000" cx="12.2554662" cy="14.1428571" rx="1" ry="1"></ellipse>
        <ellipse id="Oval" stroke="#000000" fill="#000000" cx="10.2508039" cy="14.1428571" rx="1" ry="1"></ellipse>
        <ellipse id="Oval" stroke="#000000" fill="#000000" cx="9.25080386" cy="14.1428571" rx="1" ry="1"></ellipse>
        <ellipse id="Oval" stroke="#000000" fill="#000000" cx="9.25080386" cy="16.1428571" rx="1" ry="1"></ellipse>
        <ellipse id="Oval" stroke="#000000" fill="#000000" cx="8.25080386" cy="16.1428571" rx="1" ry="1"></ellipse>
        <ellipse id="Oval" stroke="#000000" fill="#000000" cx="8.25080386" cy="14.1428571" rx="1" ry="1"></ellipse>
        <ellipse id="Oval" stroke="#000000" fill="#000000" cx="8.25080386" cy="15.1428571" rx="1" ry="1"></ellipse>
        <ellipse id="Oval" stroke="#000000" fill="#000000" cx="7.25080386" cy="16.1428571" rx="1" ry="1"></ellipse>
        <ellipse id="Oval" stroke="#000000" fill="#000000" cx="7.25080386" cy="14.1428571" rx="1" ry="1"></ellipse>
        <ellipse id="Oval" stroke="#000000" fill="#000000" cx="8.25080386" cy="13.1428571" rx="1" ry="1"></ellipse>
        <ellipse id="Oval" stroke="#000000" fill="#000000" cx="7.25080386" cy="13.1428571" rx="1" ry="1"></ellipse>
        <ellipse id="Oval" stroke="#000000" fill="#000000" cx="7.25080386" cy="15.1428571" rx="1" ry="1"></ellipse>
        <ellipse id="Oval" stroke="#000000" fill="#000000" cx="20.7754662" cy="19.8" rx="1" ry="1"></ellipse>
        <ellipse id="Oval" stroke="#000000" fill="#000000" cx="20.7754662" cy="17.7428571" rx="1" ry="1"></ellipse>
        <ellipse id="Oval" stroke="#000000" fill="#000000" cx="21.7754662" cy="18.7471429" rx="1" ry="1"></ellipse>
        <ellipse id="Oval" stroke="#000000" fill="#000000" cx="18.7754662" cy="19.8" rx="1" ry="1"></ellipse>
        <ellipse id="Oval" stroke="#000000" fill="#000000" cx="19.7754662" cy="19.8" rx="1" ry="1"></ellipse>
        <ellipse id="Oval" stroke="#000000" fill="#000000" cx="21.7754662" cy="17.7428571" rx="1" ry="1"></ellipse>
        <ellipse id="Oval" stroke="#000000" fill="#000000" cx="20.7754662" cy="16.7428571" rx="1" ry="1"></ellipse>
        <ellipse id="Oval" stroke="#000000" fill="#000000" cx="21.7754662" cy="16.7428571" rx="1" ry="1"></ellipse>
        <ellipse id="Oval" stroke="#000000" fill="#000000" cx="20.7754662" cy="15.7428571" rx="1" ry="1"></ellipse>
        <ellipse id="Oval" stroke="#000000" fill="#000000" cx="17.7765273" cy="19.7428571" rx="1" ry="1"></ellipse>
        <ellipse id="Oval" stroke="#000000" fill="#000000" cx="16.7765273" cy="19.7428571" rx="1" ry="1"></ellipse>
        <ellipse id="Oval" stroke="#000000" fill="#000000" cx="18.7754662" cy="18.7471429" rx="1" ry="1"></ellipse>
        <ellipse id="Oval" stroke="#000000" fill="#000000" cx="19.7754662" cy="18.7471429" rx="1" ry="1"></ellipse>
        <ellipse id="Oval" stroke="#000000" fill="#000000" cx="17.7765273" cy="18.7428571" rx="1" ry="1"></ellipse>
        <ellipse id="Oval" stroke="#000000" fill="#000000" cx="16.7765273" cy="18.7428571" rx="1" ry="1"></ellipse>
        <ellipse id="Oval" stroke="#000000" fill="#000000" cx="18.7754662" cy="17.7471429" rx="1" ry="1"></ellipse>
        <ellipse id="Oval" stroke="#000000" fill="#000000" cx="19.7754662" cy="17.7471429" rx="1" ry="1"></ellipse>
        <ellipse id="Oval" stroke="#000000" fill="#000000" cx="17.7765273" cy="17.7428571" rx="1" ry="1"></ellipse>
        <ellipse id="Oval" stroke="#000000" fill="#000000" cx="16.7765273" cy="17.7428571" rx="1" ry="1"></ellipse>
        <ellipse id="Oval" stroke="#000000" fill="#000000" cx="18.7754662" cy="16.8" rx="1" ry="1"></ellipse>
        <ellipse id="Oval" stroke="#000000" fill="#000000" cx="19.7754662" cy="16.8" rx="1" ry="1"></ellipse>
        <ellipse id="Oval" stroke="#000000" fill="#000000" cx="17.7765273" cy="16.7428571" rx="1" ry="1"></ellipse>
        <ellipse id="Oval" stroke="#000000" fill="#000000" cx="16.7765273" cy="16.7428571" rx="1" ry="1"></ellipse>
        <ellipse id="Oval" stroke="#000000" fill="#000000" cx="18.7754662" cy="15.7471429" rx="1" ry="1"></ellipse>
        <ellipse id="Oval" stroke="#000000" fill="#000000" cx="19.7754662" cy="15.7471429" rx="1" ry="1"></ellipse>
        <ellipse id="Oval" stroke="#000000" fill="#000000" cx="17.7765273" cy="15.7428571" rx="1" ry="1"></ellipse>
        <ellipse id="Oval" stroke="#000000" fill="#000000" cx="16.7765273" cy="15.7428571" rx="1" ry="1"></ellipse>
        <ellipse id="Oval" stroke="#000000" fill="#000000" cx="15.7765273" cy="18.7428571" rx="1" ry="1"></ellipse>
        <ellipse id="Oval" stroke="#000000" fill="#000000" cx="15.7765273" cy="17.7428571" rx="1" ry="1"></ellipse>
        <ellipse id="Oval" stroke="#000000" fill="#000000" cx="15.7765273" cy="16.7428571" rx="1" ry="1"></ellipse>
        <ellipse id="Oval" stroke="#000000" fill="#000000" cx="15.7765273" cy="15.7428571" rx="1" ry="1"></ellipse>
        <ellipse id="Oval" stroke="#000000" fill="#000000" cx="21.7754662" cy="15.7428571" rx="1" ry="1"></ellipse>
        <rect id="Rectangle" fill="#000000" x="18" y="13.5" width="1" height="1"></rect>
        <rect id="Rectangle" fill="#000000" x="17" y="1" width="1" height="1"></rect>
        <rect id="Rectangle" fill="#000000" x="12.25" y="20.75" width="1" height="1"></rect>
        <rect id="Rectangle" fill="#000000" x="15.5" y="8.75" width="1" height="1"></rect>
        <rect id="Rectangle" fill="#000000" x="9" y="11.5" width="1" height="1"></rect>
        <rect id="Rectangle" fill="#000000" x="2.75" y="19.25" width="1" height="1"></rect>
        <rect id="Rectangle" fill="#000000" x="1" y="6" width="1" height="1"></rect>
        <rect id="Rectangle" fill="#000000" x="4" y="1" width="1" height="1"></rect>
    </g>
</svg>