<?xml version="1.0" encoding="UTF-8"?>
<svg width="24px" height="24px" viewBox="0 0 24 24" version="1.1" xmlns="http://www.w3.org/2000/svg" xmlns:xlink="http://www.w3.org/1999/xlink">
    <title>statesdots</title>
    <g id="statesdots" stroke="none" stroke-width="1" fill="none" fill-rule="evenodd">
        <ellipse id="Oval" stroke="#000000" fill="#000000" cx="17.9983923" cy="2.02857143" rx="1" ry="1"></ellipse>
        <ellipse id="Oval" stroke="#000000" fill="#000000" cx="17.9983923" cy="4.08571429" rx="1" ry="1"></ellipse>
        <ellipse id="Oval" stroke="#000000" fill="#000000" cx="11.5080386" cy="3.31428571" rx="1" ry="1"></ellipse>
        <ellipse id="Oval" stroke="#000000" fill="#000000" cx="12.7299035" cy="3.31428571" rx="1" ry="1"></ellipse>
        <ellipse id="Oval" stroke="#000000" fill="#000000" cx="16.7765273" cy="4.08571429" rx="1" ry="1"></ellipse>
        <ellipse id="Oval" stroke="#000000" fill="#000000" cx="17.9983923" cy="4.08571429" rx="1" ry="1"></ellipse>
        <ellipse id="Oval" stroke="#000000" fill="#000000" cx="17.9983923" cy="6.14285714" rx="1" ry="1"></ellipse>
        <ellipse id="Oval" stroke="#000000" fill="#000000" cx="17.9983923" cy="5.11428571" rx="1" ry="1"></ellipse>
        <ellipse id="Oval" stroke="#000000" fill="#000000" cx="16.7765273" cy="5.11428571" rx="1" ry="1"></ellipse>
        <ellipse id="Oval" stroke="#000000" fill="#000000" cx="12.7299035" cy="4.34285714" rx="1" ry="1"></ellipse>
        <ellipse id="Oval" stroke="#000000" fill="#000000" cx="11.5080386" cy="4.34285714" rx="1" ry="1"></ellipse>
        <ellipse id="Oval" stroke="#000000" fill="#000000" cx="10.2861736" cy="4.34285714" rx="1" ry="1"></ellipse>
        <ellipse id="Oval" stroke="#000000" fill="#000000" cx="10.2861736" cy="3.31428571" rx="1" ry="1"></ellipse>
        <ellipse id="Oval" stroke="#000000" fill="#000000" cx="9.06430868" cy="4.34285714" rx="1" ry="1"></ellipse>
        <ellipse id="Oval" stroke="#000000" fill="#000000" cx="16.7765273" cy="6.14285714" rx="1" ry="1"></ellipse>
        <ellipse id="Oval" stroke="#000000" fill="#000000" cx="12.7299035" cy="5.37142857" rx="1" ry="1"></ellipse>
        <ellipse id="Oval" stroke="#000000" fill="#000000" cx="11.5080386" cy="5.37142857" rx="1" ry="1"></ellipse>
        <ellipse id="Oval" stroke="#000000" fill="#000000" cx="10.2861736" cy="5.37142857" rx="1" ry="1"></ellipse>
        <ellipse id="Oval" stroke="#000000" fill="#000000" cx="9.06430868" cy="5.37142857" rx="1" ry="1"></ellipse>
        <ellipse id="Oval" stroke="#000000" fill="#000000" cx="9.06430868" cy="3.31428571" rx="1" ry="1"></ellipse>
        <ellipse id="Oval" stroke="#000000" fill="#000000" cx="5.19292605" cy="9.65714286" rx="1" ry="1"></ellipse>
        <ellipse id="Oval" stroke="#000000" fill="#000000" cx="9.06430868" cy="2.28571429" rx="1" ry="1"></ellipse>
        <ellipse id="Oval" stroke="#000000" fill="#000000" cx="10.2861736" cy="1.25714286" rx="1" ry="1"></ellipse>
        <ellipse id="Oval" stroke="#000000" fill="#000000" cx="10.2861736" cy="2.28571429" rx="1" ry="1"></ellipse>
        <ellipse id="Oval" stroke="#000000" fill="#000000" cx="5.19292605" cy="7.6" rx="1" ry="1"></ellipse>
        <ellipse id="Oval" stroke="#000000" fill="#000000" cx="5.19292605" cy="8.62857143" rx="1" ry="1"></ellipse>
        <ellipse id="Oval" stroke="#000000" fill="#000000" cx="3.97106109" cy="9.65714286" rx="1" ry="1"></ellipse>
        <ellipse id="Oval" stroke="#000000" fill="#000000" cx="11.5080386" cy="1.25714286" rx="1" ry="1"></ellipse>
        <ellipse id="Oval" stroke="#000000" fill="#000000" cx="19.2202572" cy="4.08571429" rx="1" ry="1"></ellipse>
        <ellipse id="Oval" stroke="#000000" fill="#000000" cx="2.74919614" cy="9.65714286" rx="1" ry="1"></ellipse>
        <ellipse id="Oval" stroke="#000000" fill="#000000" cx="19.2202572" cy="6.14285714" rx="1" ry="1"></ellipse>
        <ellipse id="Oval" stroke="#000000" fill="#000000" cx="1.52733119" cy="10.6857143" rx="1" ry="1"></ellipse>
        <ellipse id="Oval" stroke="#000000" fill="#000000" cx="11.5080386" cy="2.28571429" rx="1" ry="1"></ellipse>
        <ellipse id="Oval" stroke="#000000" fill="#000000" cx="20.4421222" cy="7.17142857" rx="1" ry="1"></ellipse>
        <ellipse id="Oval" stroke="#000000" fill="#000000" cx="17.9983923" cy="3.05714286" rx="1" ry="1"></ellipse>
        <ellipse id="Oval" stroke="#000000" fill="#000000" cx="3.97106109" cy="8.62857143" rx="1" ry="1"></ellipse>
        <ellipse id="Oval" stroke="#000000" fill="#000000" cx="2.74919614" cy="10.6857143" rx="1" ry="1"></ellipse>
        <ellipse id="Oval" stroke="#000000" fill="#000000" cx="3.97106109" cy="10.6857143" rx="1" ry="1"></ellipse>
        <ellipse id="Oval" stroke="#000000" fill="#000000" cx="5.19292605" cy="10.6857143" rx="1" ry="1"></ellipse>
        <ellipse id="Oval" stroke="#000000" fill="#000000" cx="17.9983923" cy="7.17142857" rx="1" ry="1"></ellipse>
        <ellipse id="Oval" stroke="#000000" fill="#000000" cx="19.2202572" cy="7.17142857" rx="1" ry="1"></ellipse>
        <ellipse id="Oval" stroke="#000000" fill="#000000" cx="16.7765273" cy="7.17142857" rx="1" ry="1"></ellipse>
        <ellipse id="Oval" stroke="#000000" fill="#000000" cx="9.25562701" cy="19.6571429" rx="1" ry="1"></ellipse>
        <ellipse id="Oval" stroke="#000000" fill="#000000" cx="8.03376206" cy="19.6571429" rx="1" ry="1"></ellipse>
        <ellipse id="Oval" stroke="#000000" fill="#000000" cx="6.81189711" cy="19.6571429" rx="1" ry="1"></ellipse>
        <ellipse id="Oval" stroke="#000000" fill="#000000" cx="5.59003215" cy="19.6571429" rx="1" ry="1"></ellipse>
        <ellipse id="Oval" stroke="#000000" fill="#000000" cx="1.52733119" cy="11.7142857" rx="1" ry="1"></ellipse>
        <ellipse id="Oval" stroke="#000000" fill="#000000" cx="20.4421222" cy="6.14285714" rx="1" ry="1"></ellipse>
        <ellipse id="Oval" stroke="#000000" fill="#000000" cx="2.74919614" cy="11.7142857" rx="1" ry="1"></ellipse>
        <ellipse id="Oval" stroke="#000000" fill="#000000" cx="3.97106109" cy="15.8285714" rx="1" ry="1"></ellipse>
        <ellipse id="Oval" stroke="#000000" fill="#000000" cx="3.97106109" cy="11.7142857" rx="1" ry="1"></ellipse>
        <ellipse id="Oval" stroke="#000000" fill="#000000" cx="5.19292605" cy="11.7142857" rx="1" ry="1"></ellipse>
        <ellipse id="Oval" stroke="#000000" fill="#000000" cx="17.7765273" cy="12.7428571" rx="1" ry="1"></ellipse>
        <ellipse id="Oval" stroke="#000000" fill="#000000" cx="9.25562701" cy="20.6857143" rx="1" ry="1"></ellipse>
        <ellipse id="Oval" stroke="#000000" fill="#000000" cx="8.03376206" cy="20.6857143" rx="1" ry="1"></ellipse>
        <ellipse id="Oval" stroke="#000000" fill="#000000" cx="6.81189711" cy="20.6857143" rx="1" ry="1"></ellipse>
        <ellipse id="Oval" stroke="#000000" fill="#000000" cx="5.59003215" cy="20.6857143" rx="1" ry="1"></ellipse>
        <ellipse id="Oval" stroke="#000000" fill="#000000" cx="1.52733119" cy="12.7428571" rx="1" ry="1"></ellipse>
        <ellipse id="Oval" stroke="#000000" fill="#000000" cx="0.305466238" cy="12.7428571" rx="1" ry="1"></ellipse>
        <ellipse id="Oval" stroke="#000000" fill="#000000" cx="2.74919614" cy="12.7428571" rx="1" ry="1"></ellipse>
        <ellipse id="Oval" stroke="#000000" fill="#000000" cx="3.97106109" cy="14.8" rx="1" ry="1"></ellipse>
        <ellipse id="Oval" stroke="#000000" fill="#000000" cx="3.97106109" cy="12.7428571" rx="1" ry="1"></ellipse>
        <ellipse id="Oval" stroke="#000000" fill="#000000" cx="5.19292605" cy="12.7428571" rx="1" ry="1"></ellipse>
        <ellipse id="Oval" stroke="#000000" fill="#000000" cx="17.7765273" cy="13.7714286" rx="1" ry="1"></ellipse>
        <ellipse id="Oval" stroke="#000000" fill="#000000" cx="9.25562701" cy="21.7142857" rx="1" ry="1"></ellipse>
        <ellipse id="Oval" stroke="#000000" fill="#000000" cx="8.03376206" cy="21.7142857" rx="1" ry="1"></ellipse>
        <ellipse id="Oval" stroke="#000000" fill="#000000" cx="6.81189711" cy="21.7142857" rx="1" ry="1"></ellipse>
        <ellipse id="Oval" stroke="#000000" fill="#000000" cx="5.59003215" cy="21.7142857" rx="1" ry="1"></ellipse>
        <ellipse id="Oval" stroke="#000000" fill="#000000" cx="1.52733119" cy="13.7714286" rx="1" ry="1"></ellipse>
        <ellipse id="Oval" stroke="#000000" fill="#000000" cx="5.19292605" cy="14.8" rx="1" ry="1"></ellipse>
        <ellipse id="Oval" stroke="#000000" fill="#000000" cx="2.74919614" cy="13.7714286" rx="1" ry="1"></ellipse>
        <ellipse id="Oval" stroke="#000000" fill="#000000" cx="19.2202572" cy="5.11428571" rx="1" ry="1"></ellipse>
        <ellipse id="Oval" stroke="#000000" fill="#000000" cx="3.97106109" cy="13.7714286" rx="1" ry="1"></ellipse>
        <ellipse id="Oval" stroke="#000000" fill="#000000" cx="5.19292605" cy="13.7714286" rx="1" ry="1"></ellipse>
        <ellipse id="Oval" stroke="#000000" fill="#000000" cx="16.5707395" cy="23.4857143" rx="1" ry="1"></ellipse>
        <ellipse id="Oval" stroke="#000000" fill="#000000" cx="15.3488746" cy="22.4571429" rx="1" ry="1"></ellipse>
        <ellipse id="Oval" stroke="#000000" fill="#000000" cx="21.6639871" cy="7.17142857" rx="1" ry="1"></ellipse>
        <ellipse id="Oval" stroke="#000000" fill="#000000" cx="13.2508039" cy="16.1142857" rx="1" ry="1"></ellipse>
        <ellipse id="Oval" stroke="#000000" fill="#000000" cx="9.25562701" cy="22.7428571" rx="1" ry="1"></ellipse>
        <ellipse id="Oval" stroke="#000000" fill="#000000" cx="8.03376206" cy="22.7428571" rx="1" ry="1"></ellipse>
        <ellipse id="Oval" stroke="#000000" fill="#000000" cx="15.6945338" cy="18.1714286" rx="1" ry="1"></ellipse>
        <ellipse id="Oval" stroke="#000000" fill="#000000" cx="0.305466238" cy="11.7142857" rx="1" ry="1"></ellipse>
        <ellipse id="Oval" stroke="#000000" fill="#000000" cx="2.74919614" cy="14.8" rx="1" ry="1"></ellipse>
        <ellipse id="Oval" stroke="#000000" fill="#000000" cx="14.4726688" cy="18.1714286" rx="1" ry="1"></ellipse>
        <ellipse id="Oval" stroke="#000000" fill="#000000" cx="14.4726688" cy="17.1428571" rx="1" ry="1"></ellipse>
        <ellipse id="Oval" stroke="#000000" fill="#000000" cx="15.6945338" cy="17.1428571" rx="1" ry="1"></ellipse>
        <ellipse id="Oval" stroke="#000000" fill="#000000" cx="13.2508039" cy="17.1428571" rx="1" ry="1"></ellipse>
        <ellipse id="Oval" stroke="#000000" fill="#000000" cx="16.5707395" cy="22.4571429" rx="1" ry="1"></ellipse>
        <ellipse id="Oval" stroke="#000000" fill="#000000" cx="21.4421222" cy="14.8" rx="1" ry="1"></ellipse>
        <ellipse id="Oval" stroke="#000000" fill="#000000" cx="21.4421222" cy="12.7428571" rx="1" ry="1"></ellipse>
        <ellipse id="Oval" stroke="#000000" fill="#000000" cx="18.9983923" cy="12.7428571" rx="1" ry="1"></ellipse>
        <ellipse id="Oval" stroke="#000000" fill="#000000" cx="20.2202572" cy="12.7428571" rx="1" ry="1"></ellipse>
        <ellipse id="Oval" stroke="#000000" fill="#000000" cx="20.4421222" cy="13.7714286" rx="1" ry="1"></ellipse>
        <ellipse id="Oval" stroke="#000000" fill="#000000" cx="18.9983923" cy="13.7714286" rx="1" ry="1"></ellipse>
        <ellipse id="Oval" stroke="#000000" fill="#000000" cx="21.9212219" cy="18.8571429" rx="1" ry="1"></ellipse>
        <ellipse id="Oval" stroke="#000000" fill="#000000" cx="22.6639871" cy="13.7714286" rx="1" ry="1"></ellipse>
        <ellipse id="Oval" stroke="#000000" fill="#000000" cx="18.9983923" cy="14.8" rx="1" ry="1"></ellipse>
        <ellipse id="Oval" stroke="#000000" fill="#000000" cx="20.2202572" cy="14.8" rx="1" ry="1"></ellipse>
        <ellipse id="Oval" stroke="#000000" fill="#000000" cx="22.6639871" cy="12.7428571" rx="1" ry="1"></ellipse>
    </g>
</svg>