<?xml version="1.0" encoding="UTF-8"?>
<svg width="24px" height="24px" viewBox="0 0 24 24" version="1.1" xmlns="http://www.w3.org/2000/svg" xmlns:xlink="http://www.w3.org/1999/xlink">
    <title>statesdotsindpop</title>
    <g id="statesdotsindpop" stroke="none" stroke-width="1" fill="none" fill-rule="evenodd">
        <ellipse id="Oval" stroke="#000000" fill="#000000" cx="12.9983923" cy="1.02857143" rx="1" ry="1"></ellipse>
        <ellipse id="Oval" stroke="#000000" fill="#000000" cx="12.9983923" cy="3.08571429" rx="1" ry="1"></ellipse>
        <ellipse id="Oval" stroke="#000000" fill="#000000" cx="11.7765273" cy="3.08571429" rx="1" ry="1"></ellipse>
        <ellipse id="Oval" stroke="#000000" fill="#000000" cx="12.9983923" cy="5.14285714" rx="1" ry="1"></ellipse>
        <ellipse id="Oval" stroke="#000000" fill="#000000" cx="12.9983923" cy="4.11428571" rx="1" ry="1"></ellipse>
        <ellipse id="Oval" stroke="#000000" fill="#000000" cx="11.7765273" cy="4.11428571" rx="1" ry="1"></ellipse>
        <ellipse id="Oval" stroke="#000000" fill="#000000" cx="11.7765273" cy="5.14285714" rx="1" ry="1"></ellipse>
        <ellipse id="Oval" stroke="#000000" fill="#000000" cx="14.2202572" cy="3.08571429" rx="1" ry="1"></ellipse>
        <ellipse id="Oval" stroke="#000000" fill="#000000" cx="14.2202572" cy="2.08571429" rx="1" ry="1"></ellipse>
        <ellipse id="Oval" stroke="#000000" fill="#000000" cx="14.2202572" cy="5.14285714" rx="1" ry="1"></ellipse>
        <ellipse id="Oval" stroke="#000000" fill="#000000" cx="15.4421222" cy="6.17142857" rx="1" ry="1"></ellipse>
        <ellipse id="Oval" stroke="#000000" fill="#000000" cx="12.9983923" cy="2.05714286" rx="1" ry="1"></ellipse>
        <ellipse id="Oval" stroke="#000000" fill="#000000" cx="2.74919614" cy="7.68571429" rx="1" ry="1"></ellipse>
        <ellipse id="Oval" stroke="#000000" fill="#000000" cx="2.74919614" cy="6.68571429" rx="1" ry="1"></ellipse>
        <ellipse id="Oval" stroke="#000000" fill="#000000" cx="12.9983923" cy="6.17142857" rx="1" ry="1"></ellipse>
        <ellipse id="Oval" stroke="#000000" fill="#000000" cx="14.2202572" cy="6.17142857" rx="1" ry="1"></ellipse>
        <ellipse id="Oval" stroke="#000000" fill="#000000" cx="11.7765273" cy="6.17142857" rx="1" ry="1"></ellipse>
        <ellipse id="Oval" stroke="#000000" fill="#000000" cx="12.9983923" cy="7.17142857" rx="1" ry="1"></ellipse>
        <ellipse id="Oval" stroke="#000000" fill="#000000" cx="14.2202572" cy="7.17142857" rx="1" ry="1"></ellipse>
        <ellipse id="Oval" stroke="#000000" fill="#000000" cx="11.7765273" cy="7.17142857" rx="1" ry="1"></ellipse>
        <ellipse id="Oval" stroke="#000000" fill="#000000" cx="1.52733119" cy="8.71428571" rx="1" ry="1"></ellipse>
        <ellipse id="Oval" stroke="#000000" fill="#000000" cx="1.52733119" cy="7.71428571" rx="1" ry="1"></ellipse>
        <ellipse id="Oval" stroke="#000000" fill="#000000" cx="15.4421222" cy="5.14285714" rx="1" ry="1"></ellipse>
        <ellipse id="Oval" stroke="#000000" fill="#000000" cx="2.74919614" cy="8.71428571" rx="1" ry="1"></ellipse>
        <ellipse id="Oval" stroke="#000000" fill="#000000" cx="4.25562701" cy="16.6857143" rx="1" ry="1"></ellipse>
        <ellipse id="Oval" stroke="#000000" fill="#000000" cx="3.03376206" cy="16.6857143" rx="1" ry="1"></ellipse>
        <ellipse id="Oval" stroke="#000000" fill="#000000" cx="1.81189711" cy="16.6857143" rx="1" ry="1"></ellipse>
        <ellipse id="Oval" stroke="#000000" fill="#000000" cx="1.52733119" cy="9.74285714" rx="1" ry="1"></ellipse>
        <ellipse id="Oval" stroke="#000000" fill="#000000" cx="0.305466238" cy="9.74285714" rx="1" ry="1"></ellipse>
        <ellipse id="Oval" stroke="#000000" fill="#000000" cx="0.305466238" cy="8.74285714" rx="1" ry="1"></ellipse>
        <ellipse id="Oval" stroke="#000000" fill="#000000" cx="2.74919614" cy="9.74285714" rx="1" ry="1"></ellipse>
        <ellipse id="Oval" stroke="#000000" fill="#000000" cx="4.25562701" cy="17.7142857" rx="1" ry="1"></ellipse>
        <ellipse id="Oval" stroke="#000000" fill="#000000" cx="3.03376206" cy="17.7142857" rx="1" ry="1"></ellipse>
        <ellipse id="Oval" stroke="#000000" fill="#000000" cx="1.52733119" cy="10.7714286" rx="1" ry="1"></ellipse>
        <ellipse id="Oval" stroke="#000000" fill="#000000" cx="2.74919614" cy="10.7714286" rx="1" ry="1"></ellipse>
        <ellipse id="Oval" stroke="#000000" fill="#000000" cx="14.2202572" cy="4.11428571" rx="1" ry="1"></ellipse>
        <ellipse id="Oval" stroke="#000000" fill="#000000" cx="16.6639871" cy="6.17142857" rx="1" ry="1"></ellipse>
        <ellipse id="Oval" stroke="#000000" fill="#000000" cx="15.4421222" cy="7.17142857" rx="1" ry="1"></ellipse>
        <ellipse id="Oval" stroke="#000000" fill="#000000" cx="16.6639871" cy="7.17142857" rx="1" ry="1"></ellipse>
        <ellipse id="Oval" stroke="#000000" fill="#000000" cx="16.6639871" cy="8.17142857" rx="1" ry="1"></ellipse>
        <ellipse id="Oval" stroke="#000000" fill="#000000" cx="17.6639871" cy="8.17142857" rx="1" ry="1"></ellipse>
        <ellipse id="Oval" stroke="#000000" fill="#000000" cx="12.9983923" cy="8.17142857" rx="1" ry="1"></ellipse>
        <ellipse id="Oval" stroke="#000000" fill="#000000" cx="14.2202572" cy="8.17142857" rx="1" ry="1"></ellipse>
        <ellipse id="Oval" stroke="#000000" fill="#000000" cx="11.7765273" cy="8.17142857" rx="1" ry="1"></ellipse>
        <ellipse id="Oval" stroke="#000000" fill="#000000" cx="15.4421222" cy="8.17142857" rx="1" ry="1"></ellipse>
        <ellipse id="Oval" stroke="#000000" fill="#000000" cx="20.6945338" cy="19.1714286" rx="1" ry="1"></ellipse>
        <ellipse id="Oval" stroke="#000000" fill="#000000" cx="15.6945338" cy="23.1714286" rx="1" ry="1"></ellipse>
        <ellipse id="Oval" stroke="#000000" fill="#000000" cx="16.6945338" cy="23.1714286" rx="1" ry="1"></ellipse>
        <ellipse id="Oval" stroke="#000000" fill="#000000" cx="15.6945338" cy="24.1714286" rx="1" ry="1"></ellipse>
        <ellipse id="Oval" stroke="#000000" fill="#000000" cx="16.6945338" cy="24.1714286" rx="1" ry="1"></ellipse>
        <ellipse id="Oval" stroke="#000000" fill="#000000" cx="2.74919614" cy="11.8" rx="1" ry="1"></ellipse>
        <ellipse id="Oval" stroke="#000000" fill="#000000" cx="12.4726688" cy="18.1428571" rx="1" ry="1"></ellipse>
        <ellipse id="Oval" stroke="#000000" fill="#000000" cx="11.2508039" cy="18.1428571" rx="1" ry="1"></ellipse>
        <ellipse id="Oval" stroke="#000000" fill="#000000" cx="12.4726688" cy="17.1428571" rx="1" ry="1"></ellipse>
        <ellipse id="Oval" stroke="#000000" fill="#000000" cx="11.2508039" cy="17.1428571" rx="1" ry="1"></ellipse>
        <ellipse id="Oval" stroke="#000000" fill="#000000" cx="10.2508039" cy="18.1428571" rx="1" ry="1"></ellipse>
        <ellipse id="Oval" stroke="#000000" fill="#000000" cx="10.2508039" cy="16.1428571" rx="1" ry="1"></ellipse>
        <ellipse id="Oval" stroke="#000000" fill="#000000" cx="10.2508039" cy="17.1428571" rx="1" ry="1"></ellipse>
        <ellipse id="Oval" stroke="#000000" fill="#000000" cx="9.25080386" cy="17.1428571" rx="1" ry="1"></ellipse>
        <ellipse id="Oval" stroke="#000000" fill="#000000" cx="9.25080386" cy="16.1428571" rx="1" ry="1"></ellipse>
        <ellipse id="Oval" stroke="#000000" fill="#000000" cx="22.4421222" cy="14.8" rx="1" ry="1"></ellipse>
        <ellipse id="Oval" stroke="#000000" fill="#000000" cx="22.4421222" cy="12.7428571" rx="1" ry="1"></ellipse>
        <ellipse id="Oval" stroke="#000000" fill="#000000" cx="23.6639871" cy="13.7714286" rx="1" ry="1"></ellipse>
        <ellipse id="Oval" stroke="#000000" fill="#000000" cx="19.9983923" cy="14.8" rx="1" ry="1"></ellipse>
        <ellipse id="Oval" stroke="#000000" fill="#000000" cx="21.2202572" cy="14.8" rx="1" ry="1"></ellipse>
        <ellipse id="Oval" stroke="#000000" fill="#000000" cx="23.6639871" cy="12.7428571" rx="1" ry="1"></ellipse>
        <ellipse id="Oval" stroke="#000000" fill="#000000" cx="22.4421222" cy="11.7428571" rx="1" ry="1"></ellipse>
        <ellipse id="Oval" stroke="#000000" fill="#000000" cx="23.6639871" cy="11.7428571" rx="1" ry="1"></ellipse>
        <ellipse id="Oval" stroke="#000000" fill="#000000" cx="22.4421222" cy="10.7428571" rx="1" ry="1"></ellipse>
        <ellipse id="Oval" stroke="#000000" fill="#000000" cx="18.7765273" cy="14.7428571" rx="1" ry="1"></ellipse>
        <ellipse id="Oval" stroke="#000000" fill="#000000" cx="17.7765273" cy="14.7428571" rx="1" ry="1"></ellipse>
        <ellipse id="Oval" stroke="#000000" fill="#000000" cx="19.9983923" cy="13.8" rx="1" ry="1"></ellipse>
        <ellipse id="Oval" stroke="#000000" fill="#000000" cx="21.2202572" cy="13.8" rx="1" ry="1"></ellipse>
        <ellipse id="Oval" stroke="#000000" fill="#000000" cx="18.7765273" cy="13.7428571" rx="1" ry="1"></ellipse>
        <ellipse id="Oval" stroke="#000000" fill="#000000" cx="17.7765273" cy="13.7428571" rx="1" ry="1"></ellipse>
        <ellipse id="Oval" stroke="#000000" fill="#000000" cx="16.7765273" cy="14.7428571" rx="1" ry="1"></ellipse>
        <ellipse id="Oval" stroke="#000000" fill="#000000" cx="16.7765273" cy="13.7428571" rx="1" ry="1"></ellipse>
        <ellipse id="Oval" stroke="#000000" fill="#000000" cx="19.9983923" cy="12.8" rx="1" ry="1"></ellipse>
        <ellipse id="Oval" stroke="#000000" fill="#000000" cx="21.2202572" cy="12.8" rx="1" ry="1"></ellipse>
        <ellipse id="Oval" stroke="#000000" fill="#000000" cx="18.7765273" cy="12.7428571" rx="1" ry="1"></ellipse>
        <ellipse id="Oval" stroke="#000000" fill="#000000" cx="17.7765273" cy="12.7428571" rx="1" ry="1"></ellipse>
        <ellipse id="Oval" stroke="#000000" fill="#000000" cx="19.9983923" cy="11.8" rx="1" ry="1"></ellipse>
        <ellipse id="Oval" stroke="#000000" fill="#000000" cx="21.2202572" cy="11.8" rx="1" ry="1"></ellipse>
        <ellipse id="Oval" stroke="#000000" fill="#000000" cx="18.7765273" cy="11.7428571" rx="1" ry="1"></ellipse>
        <ellipse id="Oval" stroke="#000000" fill="#000000" cx="17.7765273" cy="11.7428571" rx="1" ry="1"></ellipse>
        <ellipse id="Oval" stroke="#000000" fill="#000000" cx="19.9983923" cy="10.8" rx="1" ry="1"></ellipse>
        <ellipse id="Oval" stroke="#000000" fill="#000000" cx="21.2202572" cy="10.8" rx="1" ry="1"></ellipse>
        <ellipse id="Oval" stroke="#000000" fill="#000000" cx="18.7765273" cy="10.7428571" rx="1" ry="1"></ellipse>
        <ellipse id="Oval" stroke="#000000" fill="#000000" cx="17.7765273" cy="10.7428571" rx="1" ry="1"></ellipse>
        <ellipse id="Oval" stroke="#000000" fill="#000000" cx="16.7765273" cy="12.7428571" rx="1" ry="1"></ellipse>
        <ellipse id="Oval" stroke="#000000" fill="#000000" cx="16.7765273" cy="11.7428571" rx="1" ry="1"></ellipse>
        <ellipse id="Oval" stroke="#000000" fill="#000000" cx="16.7765273" cy="10.7428571" rx="1" ry="1"></ellipse>
        <ellipse id="Oval" stroke="#000000" fill="#000000" cx="23.6639871" cy="10.7428571" rx="1" ry="1"></ellipse>
        <rect id="Rectangle" fill="#000000" x="20" y="8" width="1" height="1"></rect>
        <rect id="Rectangle" fill="#000000" x="14" y="2" width="1" height="1"></rect>
        <rect id="Rectangle" fill="#000000" x="15" y="21" width="1" height="1"></rect>
        <rect id="Rectangle" fill="#000000" x="19" y="17" width="1" height="1"></rect>
        <rect id="Rectangle" fill="#000000" x="10" y="14" width="1" height="1"></rect>
        <rect id="Rectangle" fill="#000000" x="2" y="14" width="1" height="1"></rect>
        <rect id="Rectangle" fill="#000000" x="1" y="5" width="1" height="1"></rect>
        <rect id="Rectangle" fill="#000000" x="6" y="3" width="1" height="1"></rect>
        <ellipse id="Oval" stroke="#000000" fill="#000000" cx="8.74919614" cy="7.34285714" rx="1" ry="1"></ellipse>
        <ellipse id="Oval" stroke="#000000" fill="#000000" cx="7.52733119" cy="7.34285714" rx="1" ry="1"></ellipse>
        <ellipse id="Oval" stroke="#000000" fill="#000000" cx="7.52733119" cy="6.31428571" rx="1" ry="1"></ellipse>
        <ellipse id="Oval" stroke="#000000" fill="#000000" cx="6.30546624" cy="7.34285714" rx="1" ry="1"></ellipse>
        <ellipse id="Oval" stroke="#000000" fill="#000000" cx="8.74919614" cy="8.37142857" rx="1" ry="1"></ellipse>
        <ellipse id="Oval" stroke="#000000" fill="#000000" cx="7.52733119" cy="8.37142857" rx="1" ry="1"></ellipse>
        <ellipse id="Oval" stroke="#000000" fill="#000000" cx="6.30546624" cy="8.37142857" rx="1" ry="1"></ellipse>
        <ellipse id="Oval" stroke="#000000" fill="#000000" cx="6.30546624" cy="6.31428571" rx="1" ry="1"></ellipse>
        <ellipse id="Oval" stroke="#000000" fill="#000000" cx="7.52733119" cy="5.28571429" rx="1" ry="1"></ellipse>
    </g>
</svg>